<svg width="399" height="654" viewBox="0 0 399 654" fill="none" xmlns="http://www.w3.org/2000/svg">
<g clip-path="url(#clip0_11_2)">
<path d="M286.891 262.433C282.232 259.717 270.87 253.716 262.692 251.44C260.621 250.864 255.315 256.613 241.986 256.225L219.34 251.44C216.321 252.734 216.752 262.433 214.811 289.461C219.34 323.602 214.293 330.586 210.929 331.75L209.505 329.81C208.944 345.587 207.616 377.4 206.788 378.435C205.752 379.728 195.139 379.599 202.258 356.45C199.854 364.267 202.258 339.38 192.941 384.901C188.153 401.325 182.33 408.826 175.859 407.015C174.139 406.507 173.028 401.116 180.704 384.078C174.164 397.319 162.651 416.644 153.601 418.525C143.145 420.697 160.287 391.755 170.165 377.012C160.46 390.893 139.574 418.085 133.673 415.809C126.296 412.964 132.508 405.334 152.178 378.435C140.79 389.772 116.85 412.085 112.191 410.636C106.368 408.826 122.544 387.1 133.673 372.227C124.053 377.788 103.132 393.566 100.415 390.203C98.0856 389.815 97.1798 385.108 112.191 369.382C108.74 370.158 102.589 370.003 105.591 363.175C105.85 357.959 112.502 343.544 137.037 327.611C137.037 326.577 133.673 323.861 133.673 317.653C126.512 319.205 112.191 320.783 112.191 314.679L113.614 304.204C109.862 303.256 103.78 298.669 109.473 287.909C111.458 286.444 113.614 284.159 118.144 284.159C112.752 283.34 102.718 279.995 105.721 273.167C107.596 268.901 109.3 267.71 110.536 267.754C106.426 264.855 102.935 259.279 113.614 253.897L110.768 251.44C102.485 260.105 84.7567 275.701 80.098 268.77C78.7177 268.123 76.0864 265.045 76.604 257.906C71.212 259.329 60.6352 260.027 61.4634 251.44V245.88C57.538 246.267 49.6873 245.931 49.6873 241.483H53.8283C52.0166 240.362 48.9367 237.318 51.1108 234.111C48.1344 233.637 45.9345 230.102 45.9345 225.188C45.8482 224.412 46.2192 222.239 48.3932 219.756C44.5973 219.024 38.7912 215.411 45.9345 206.824L49.6873 204.367C47.0992 200.056 45.831 191.15 61.4634 190.012C54.5616 186.305 46.0639 177.934 67.2867 174.106C62.7574 169.062 57.9176 158.251 74.7923 155.354C73.9727 150.483 75.9052 141.284 90.1918 143.456C90.9682 137.335 95.8339 126.748 109.085 133.369C109.646 126.989 114.158 116.557 127.72 125.868C131.818 118.066 141.696 110.246 148.425 141.387L150.884 155.354C151.66 154.492 154.455 152.69 159.425 152.379C157.57 148.888 156.164 141.361 165.377 139.189C165.852 134.878 168.328 125.894 174.436 124.446C175.083 119.963 178.603 111.126 187.506 111.643C189.016 107.461 193.485 99.2537 199.282 99.8745C201.266 95.3051 207.228 86.7095 215.199 88.8821C218.262 81.4245 226.613 70.2855 235.516 85.3904L240.304 90.3046C241.857 88.3217 245.92 84.5627 249.751 85.3904C247.163 72.5875 244.135 45.4815 252.727 39.4809C254.323 38.4032 258.292 38.6015 261.398 48.0162C262.735 35.903 266.91 13.1768 272.915 19.1773C274.856 28.1388 277.391 47.1552 277.878 50.8708C278.597 44.9875 287.912 5.38116 292.585 4.56388C296.726 3.83968 296.036 40.6448 295.173 59.1379C300.479 37.2825 312.643 -4.23004 318.854 4.56388L310.055 64.3108C317.172 41.4208 332.416 -1.79878 336.454 8.44355C334.08 22.7081 329.383 48.1518 325.471 61.9629C334.28 40.0923 346.539 12.4546 344.736 28.4885C344.952 36.5927 339.43 63.509 315.619 106.341C322.133 96.3397 336.376 76.6999 341.242 78.1483C338.869 86.6405 328.508 108.798 306.043 129.489C303.843 136.43 295.302 152.923 278.738 163.372C265.927 176.132 240.304 203.1 240.304 208.893C249.449 217.515 267.868 235.741 268.386 239.672C275.115 243.897 288.237 254.363 286.891 262.433Z" fill="white"/>
<path d="M286.891 262.433C282.232 259.717 270.87 253.716 262.692 251.44C260.621 250.864 255.315 256.613 241.986 256.225L219.34 251.44C216.321 252.734 216.752 262.433 214.811 289.461C219.34 323.602 214.293 330.586 210.929 331.75L209.505 329.81C208.944 345.587 207.616 377.4 206.788 378.435C205.752 379.728 195.139 379.599 202.258 356.45C199.854 364.267 202.258 339.38 192.941 384.901C188.153 401.325 182.33 408.826 175.859 407.015C173.961 406.455 172.805 399.954 183.365 378.435C177.8 390.893 164.057 416.352 153.601 418.525C143.145 420.697 160.287 391.755 170.165 377.012C160.46 390.893 139.574 418.085 133.673 415.809C126.296 412.964 132.508 405.334 152.178 378.435C140.79 389.772 116.85 412.085 112.191 410.636C106.368 408.826 122.544 387.1 133.673 372.227C124.053 377.788 103.132 393.566 100.415 390.203C98.0856 389.815 97.1798 385.108 112.191 369.382C108.74 370.158 102.589 370.003 105.591 363.175C105.85 357.959 112.502 343.544 137.037 327.611C137.037 326.577 133.673 323.861 133.673 317.653C126.512 319.205 112.191 320.783 112.191 314.679L113.614 304.204C109.862 303.256 103.78 298.669 109.473 287.909C111.458 286.444 113.614 284.159 118.144 284.159C112.752 283.34 102.718 279.995 105.721 273.167C108.723 266.338 111.285 267.39 112.191 268.77C107.619 266.356 101.502 260.001 113.614 253.897L110.768 251.44C102.485 260.105 84.7567 275.701 80.098 268.77C78.7177 268.123 76.0864 265.045 76.604 257.906C71.212 259.329 60.6352 260.027 61.4634 251.44V245.88C57.538 246.267 49.6873 245.931 49.6873 241.483H53.8283C52.0166 240.362 48.9367 237.318 51.1108 234.111C48.1344 233.637 45.9345 230.102 45.9345 225.188C45.8482 224.412 46.2192 222.239 48.3932 219.756C44.5973 219.024 38.7912 215.411 45.9345 206.824L49.6873 204.367C47.0992 200.056 45.831 191.15 61.4634 190.012C54.5616 186.305 46.0639 177.934 67.2867 174.106C62.7574 169.062 57.9176 158.251 74.7923 155.354C73.9727 150.483 75.9052 141.284 90.1918 143.456C90.9682 137.335 95.8339 126.748 109.085 133.369C109.646 126.989 114.158 116.557 127.72 125.868C131.818 118.066 141.696 110.246 148.425 141.387L150.884 155.354C151.66 154.492 154.455 152.69 159.425 152.379C157.57 148.888 156.164 141.361 165.377 139.189C165.852 134.878 168.328 125.894 174.436 124.446C175.083 119.963 178.603 111.126 187.506 111.643C189.016 107.461 193.485 99.2537 199.282 99.8745C201.266 95.3051 207.228 86.7095 215.199 88.8821C218.262 81.4245 226.613 70.2855 235.516 85.3904L240.304 90.3046C241.857 88.3217 245.92 84.5627 249.751 85.3904C247.163 72.5875 244.135 45.4815 252.727 39.4809C254.323 38.4032 258.292 38.6015 261.398 48.0162C262.735 35.903 266.91 13.1768 272.915 19.1773C275.072 29.1351 277.962 51.5079 277.962 51.5079C276.538 53.965 287.408 5.46914 292.585 4.56388C296.726 3.83968 296.036 40.6448 295.173 59.1379C300.479 37.2825 312.643 -4.23004 318.854 4.56388L310.055 64.3108C317.172 41.4208 332.416 -1.79878 336.454 8.44355C333.262 27.6264 325.868 67.0266 321.831 71.1649C330.328 49.2663 346.806 10.073 344.736 28.4885C344.952 36.5927 339.43 63.509 315.619 106.341C322.133 96.3397 336.376 76.6999 341.242 78.1483C338.869 86.6405 328.508 108.798 306.043 129.489C303.843 136.43 295.302 152.923 278.738 163.372C265.927 176.132 240.304 203.1 240.304 208.893C249.449 217.515 267.868 235.741 268.386 239.672C275.115 243.897 288.237 254.363 286.891 262.433Z" stroke="white" stroke-width="5"/>
<path d="M43.5098 532.75C48.5098 525.083 54.7598 519.083 62.2598 514.75C69.7598 510.25 78.0931 508 87.2598 508V553.25H75.5098C64.8431 553.25 56.8431 555.583 51.5098 560.25C46.1764 564.75 43.5098 572.75 43.5098 584.25V649H0.759766V509.5H43.5098V532.75ZM170.443 609L200.693 509.5H246.193L196.693 649H143.943L94.4434 509.5H140.193L170.443 609ZM395.687 577C395.687 581 395.438 585.167 394.938 589.5H298.188C298.854 598.167 301.604 604.833 306.438 609.5C311.438 614 317.521 616.25 324.688 616.25C335.354 616.25 342.771 611.75 346.938 602.75H392.438C390.104 611.917 385.854 620.167 379.688 627.5C373.688 634.833 366.104 640.583 356.938 644.75C347.771 648.917 337.521 651 326.188 651C312.521 651 300.354 648.083 289.688 642.25C279.021 636.417 270.688 628.083 264.688 617.25C258.688 606.417 255.688 593.75 255.688 579.25C255.688 564.75 258.604 552.083 264.438 541.25C270.438 530.417 278.771 522.083 289.438 516.25C300.104 510.417 312.354 507.5 326.188 507.5C339.688 507.5 351.688 510.333 362.188 516C372.688 521.667 380.854 529.75 386.688 540.25C392.688 550.75 395.687 563 395.687 577ZM351.938 565.75C351.938 558.417 349.438 552.583 344.438 548.25C339.438 543.917 333.188 541.75 325.688 541.75C318.521 541.75 312.438 543.833 307.438 548C302.604 552.167 299.604 558.083 298.438 565.75H351.938Z" fill="white"/>
</g>
<defs>
<clipPath id="clip0_11_2">
<rect width="399" height="654" fill="white"/>
</clipPath>
</defs>
</svg>
