<svg width="1992" height="1024" viewBox="0 0 1992 1024" fill="none" xmlns="http://www.w3.org/2000/svg">
<path d="M776.577 608.108C767.872 603.033 746.64 591.821 731.358 587.567C727.489 586.491 717.575 597.234 692.668 596.509L650.351 587.567C644.709 589.984 645.515 608.108 641.888 658.614C650.351 722.41 640.92 735.459 634.633 737.634L631.973 734.009C630.925 763.491 628.443 822.938 626.895 824.871C624.961 827.288 605.128 827.046 618.432 783.79C613.94 798.396 618.432 751.892 601.021 836.954C592.074 867.644 581.193 881.66 569.102 878.277C565.887 877.327 563.811 867.254 578.156 835.415C565.934 860.158 544.422 896.27 527.51 899.784C507.972 903.843 540.004 849.761 558.462 822.213C540.327 848.15 501.298 898.962 490.271 894.709C476.488 889.393 488.095 875.135 524.851 824.871C503.571 846.056 458.836 887.749 450.131 885.043C439.249 881.66 469.476 841.062 490.271 813.272C472.297 823.663 433.204 853.145 428.126 846.862C423.773 846.137 422.08 837.341 450.131 807.955C443.682 809.405 432.188 809.115 437.798 796.356C438.282 786.609 450.711 759.673 496.559 729.901C496.559 727.968 490.271 722.893 490.271 711.294C476.891 714.194 450.131 717.142 450.131 705.736L452.791 686.162C445.778 684.39 434.413 675.819 445.053 655.714C448.76 652.975 452.791 648.706 461.254 648.706C451.178 647.175 432.43 640.924 438.04 628.165C441.545 620.194 444.729 617.97 447.038 618.052C439.359 612.635 432.835 602.215 452.791 592.159L447.471 587.567C431.995 603.758 398.866 632.902 390.161 619.949C387.582 618.741 382.665 612.989 383.632 599.65C373.557 602.308 353.793 603.613 355.34 587.567V577.176C348.005 577.901 333.335 577.273 333.335 568.96H341.073C337.688 566.866 331.933 561.179 335.995 555.186C330.434 554.3 326.323 547.695 326.323 538.512C326.162 537.062 326.855 533.002 330.917 528.362C323.824 526.993 312.975 520.243 326.323 504.197L333.335 499.605C328.499 491.55 326.129 474.909 355.34 472.782C342.444 465.855 326.565 450.212 366.222 443.059C357.758 433.634 348.715 413.432 380.247 408.019C378.715 398.917 382.327 381.727 409.023 385.787C410.473 374.348 419.566 354.565 444.327 366.938C445.375 355.016 453.806 335.523 479.148 352.922C486.805 338.342 505.264 323.73 517.838 381.92L522.432 408.019C523.883 406.408 529.106 403.041 538.392 402.461C534.926 395.936 532.298 381.872 549.515 377.812C550.402 369.757 555.029 352.97 566.442 350.264C567.651 341.886 574.229 325.373 590.865 326.34C593.686 318.526 602.037 303.189 612.87 304.349C616.578 295.811 627.717 279.749 642.613 283.809C648.336 269.873 663.941 249.059 680.578 277.284L689.525 286.467C692.426 282.762 700.019 275.738 707.177 277.284C702.341 253.361 696.682 202.71 712.739 191.497C715.721 189.483 723.136 189.854 728.94 207.446C731.439 184.811 739.241 142.345 750.461 153.558C754.088 170.303 758.825 205.837 759.736 212.781C761.08 201.787 778.484 127.778 787.217 126.251C794.955 124.898 793.665 193.672 792.053 228.229C801.967 187.389 824.698 109.818 836.305 126.251L819.861 237.895C833.161 195.122 861.646 114.361 869.191 133.5C864.756 160.155 855.979 207.7 848.668 233.507C865.13 192.64 888.036 140.996 884.667 170.957C885.07 186.1 874.753 236.396 830.259 316.432C842.43 297.744 869.046 261.045 878.138 263.752C873.705 279.62 854.344 321.024 812.365 359.688C808.254 372.657 792.295 403.476 761.343 423.001C737.403 446.844 689.525 497.237 689.525 508.063C706.613 524.174 741.031 558.231 741.998 565.577C754.572 573.471 779.092 593.029 776.577 608.108Z" fill="white"/>
<path d="M776.577 608.108C767.872 603.033 746.64 591.821 731.358 587.567C727.489 586.491 717.575 597.234 692.668 596.509L650.351 587.567C644.709 589.984 645.515 608.108 641.888 658.614C650.351 722.41 640.92 735.459 634.633 737.634L631.973 734.009C630.925 763.491 628.443 822.938 626.895 824.871C624.961 827.288 605.128 827.046 618.432 783.79C613.94 798.396 618.432 751.892 601.021 836.954C592.074 867.644 581.193 881.66 569.102 878.277C565.556 877.229 563.395 865.082 583.127 824.871C572.729 848.15 547.049 895.724 527.51 899.784C507.972 903.843 540.004 849.761 558.462 822.213C540.327 848.15 501.298 898.962 490.271 894.709C476.488 889.393 488.095 875.135 524.851 824.871C503.571 846.056 458.836 887.749 450.131 885.043C439.249 881.66 469.476 841.062 490.271 813.272C472.297 823.663 433.204 853.145 428.126 846.862C423.773 846.137 422.08 837.341 450.131 807.955C443.682 809.405 432.188 809.115 437.798 796.356C438.282 786.609 450.711 759.673 496.559 729.901C496.559 727.968 490.271 722.893 490.271 711.294C476.891 714.194 450.131 717.142 450.131 705.736L452.791 686.162C445.778 684.39 434.413 675.819 445.053 655.714C448.76 652.975 452.791 648.706 461.254 648.706C451.178 647.175 432.43 640.924 438.04 628.165C443.65 615.406 448.438 617.371 450.131 619.949C441.587 615.438 430.157 603.565 452.791 592.159L447.471 587.567C431.995 603.758 398.866 632.902 390.161 619.949C387.582 618.741 382.665 612.989 383.632 599.65C373.557 602.308 353.793 603.613 355.34 587.567V577.176C348.005 577.901 333.335 577.273 333.335 568.96H341.073C337.688 566.866 331.933 561.179 335.995 555.186C330.434 554.3 326.323 547.695 326.323 538.512C326.162 537.062 326.855 533.002 330.917 528.362C323.824 526.993 312.975 520.243 326.323 504.197L333.335 499.605C328.499 491.55 326.129 474.909 355.34 472.782C342.444 465.855 326.565 450.212 366.222 443.059C357.758 433.634 348.715 413.432 380.247 408.019C378.715 398.917 382.327 381.727 409.023 385.787C410.473 374.348 419.566 354.565 444.327 366.938C445.375 355.016 453.806 335.523 479.148 352.922C486.805 338.342 505.264 323.73 517.838 381.92L522.432 408.019C523.883 406.408 529.106 403.041 538.392 402.461C534.926 395.936 532.298 381.872 549.515 377.812C550.402 369.757 555.029 352.97 566.442 350.264C567.651 341.886 574.229 325.373 590.865 326.34C593.686 318.526 602.037 303.189 612.87 304.349C616.578 295.811 627.717 279.749 642.613 283.809C648.336 269.873 663.941 249.059 680.578 277.284L689.525 286.467C692.426 282.762 700.019 275.738 707.177 277.284C702.341 253.36 696.682 202.71 712.739 191.497C715.721 189.483 723.136 189.854 728.94 207.446C731.439 184.811 739.241 142.345 750.461 153.558C754.491 172.165 759.892 213.971 759.892 213.971C757.232 218.562 777.544 127.942 787.217 126.251C794.955 124.898 793.665 193.672 792.053 228.229C801.967 187.389 824.698 109.818 836.305 126.251L819.861 237.895C833.161 195.122 861.646 114.361 869.191 133.5C863.226 169.346 849.411 242.969 841.866 250.702C857.745 209.782 888.536 136.545 884.667 170.957C885.07 186.1 874.753 236.396 830.259 316.432C842.43 297.744 869.046 261.045 878.138 263.752C873.705 279.62 854.344 321.024 812.365 359.688C808.254 372.657 792.295 403.476 761.343 423.001C737.403 446.844 689.525 497.237 689.525 508.063C706.613 524.174 741.031 558.231 741.998 565.577C754.572 573.471 779.092 593.029 776.577 608.108Z" stroke="white" stroke-width="5"/>
<path d="M941.98 434.2C952.38 418.253 965.38 405.773 980.98 396.76C996.58 387.4 1013.91 382.72 1032.98 382.72V476.84H1008.54C986.354 476.84 969.714 481.693 958.62 491.4C947.527 500.76 941.98 517.4 941.98 541.32V676H853.06V385.84H941.98V434.2ZM1206 592.8L1268.92 385.84H1363.56L1260.6 676H1150.88L1047.92 385.84H1143.08L1206 592.8ZM1674.51 526.24C1674.51 534.56 1673.99 543.227 1672.95 552.24H1471.71C1473.1 570.267 1478.82 584.133 1488.87 593.84C1499.27 603.2 1511.92 607.88 1526.83 607.88C1549.02 607.88 1564.44 598.52 1573.11 579.8H1667.75C1662.9 598.867 1654.06 616.027 1641.23 631.28C1628.75 646.533 1612.98 658.493 1593.91 667.16C1574.84 675.827 1553.52 680.16 1529.95 680.16C1501.52 680.16 1476.22 674.093 1454.03 661.96C1431.84 649.827 1414.51 632.493 1402.03 609.96C1389.55 587.427 1383.31 561.08 1383.31 530.92C1383.31 500.76 1389.38 474.413 1401.51 451.88C1413.99 429.347 1431.32 412.013 1453.51 399.88C1475.7 387.747 1501.18 381.68 1529.95 381.68C1558.03 381.68 1582.99 387.573 1604.83 399.36C1626.67 411.147 1643.66 427.96 1655.79 449.8C1668.27 471.64 1674.51 497.12 1674.51 526.24ZM1583.51 502.84C1583.51 487.587 1578.31 475.453 1567.91 466.44C1557.51 457.427 1544.51 452.92 1528.91 452.92C1514 452.92 1501.35 457.253 1490.95 465.92C1480.9 474.587 1474.66 486.893 1472.23 502.84H1583.51Z" fill="white"/>
</svg>
