<svg width="1024" height="1024" viewBox="0 0 1024 1024" fill="none" xmlns="http://www.w3.org/2000/svg">
<path d="M685.577 608.108C676.872 603.033 655.64 591.821 640.358 587.567C636.489 586.491 626.575 597.234 601.668 596.509L559.351 587.567C553.709 589.984 554.515 608.108 550.888 658.614C559.351 722.41 549.92 735.459 543.633 737.634L540.973 734.009C539.925 763.491 537.443 822.938 535.895 824.871C533.961 827.288 514.128 827.046 527.432 783.79C522.94 798.396 527.432 751.892 510.021 836.954C501.074 867.644 490.193 881.66 478.102 878.277C474.887 877.327 472.811 867.254 487.156 835.415C474.934 860.158 453.422 896.27 436.51 899.784C416.972 903.843 449.004 849.761 467.462 822.213C449.327 848.15 410.298 898.962 399.271 894.709C385.488 889.393 397.095 875.135 433.851 824.871C412.571 846.056 367.836 887.749 359.131 885.043C348.249 881.66 378.476 841.062 399.271 813.272C381.297 823.663 342.204 853.145 337.126 846.862C332.773 846.137 331.08 837.341 359.131 807.955C352.682 809.405 341.188 809.115 346.798 796.356C347.282 786.609 359.711 759.673 405.559 729.901C405.559 727.968 399.271 722.893 399.271 711.294C385.891 714.194 359.131 717.142 359.131 705.736L361.791 686.162C354.778 684.39 343.413 675.819 354.053 655.714C357.76 652.975 361.791 648.706 370.254 648.706C360.178 647.175 341.43 640.924 347.04 628.165C350.545 620.194 353.729 617.97 356.038 618.052C348.359 612.635 341.835 602.215 361.791 592.159L356.471 587.567C340.995 603.758 307.866 632.902 299.161 619.949C296.582 618.741 291.665 612.989 292.632 599.65C282.557 602.308 262.793 603.613 264.34 587.567V577.176C257.005 577.901 242.335 577.273 242.335 568.96H250.073C246.688 566.866 240.933 561.179 244.995 555.186C239.434 554.3 235.323 547.695 235.323 538.512C235.162 537.062 235.855 533.002 239.917 528.362C232.824 526.993 221.975 520.243 235.323 504.197L242.335 499.605C237.499 491.55 235.129 474.909 264.34 472.782C251.444 465.855 235.565 450.212 275.222 443.059C266.758 433.634 257.715 413.432 289.247 408.019C287.715 398.917 291.327 381.727 318.023 385.787C319.473 374.348 328.566 354.565 353.327 366.938C354.375 355.016 362.806 335.523 388.148 352.922C395.805 338.342 414.264 323.73 426.838 381.92L431.432 408.019C432.883 406.408 438.106 403.041 447.392 402.461C443.926 395.936 441.298 381.872 458.515 377.812C459.402 369.757 464.029 352.97 475.442 350.264C476.651 341.886 483.229 325.373 499.865 326.34C502.686 318.526 511.037 303.189 521.87 304.349C525.578 295.811 536.717 279.749 551.613 283.809C557.336 269.873 572.941 249.059 589.578 277.284L598.525 286.467C601.426 282.762 609.019 275.738 616.177 277.284C611.341 253.36 605.682 202.71 621.739 191.497C624.721 189.483 632.136 189.854 637.94 207.446C640.439 184.811 648.241 142.345 659.461 153.558C663.088 170.303 667.825 205.837 668.736 212.781C670.08 201.787 687.484 127.778 696.217 126.251C703.955 124.898 702.665 193.672 701.053 228.229C710.967 187.389 733.698 109.818 745.305 126.251L728.861 237.895C742.161 195.122 770.646 114.361 778.191 133.5C773.756 160.155 764.979 207.7 757.668 233.507C774.13 192.64 797.036 140.996 793.667 170.957C794.07 186.1 783.753 236.396 739.259 316.432C751.43 297.744 778.046 261.045 787.138 263.752C782.705 279.62 763.344 321.024 721.365 359.688C717.254 372.657 701.295 403.476 670.343 423.001C646.403 446.844 598.525 497.237 598.525 508.063C615.613 524.174 650.031 558.231 650.998 565.577C663.572 573.471 688.092 593.029 685.577 608.108Z" fill="black"/>
<path d="M685.577 608.108C676.872 603.033 655.64 591.821 640.358 587.567C636.489 586.491 626.575 597.234 601.668 596.509L559.351 587.567C553.709 589.984 554.515 608.108 550.888 658.614C559.351 722.41 549.92 735.459 543.633 737.634L540.973 734.009C539.925 763.491 537.443 822.938 535.895 824.871C533.961 827.288 514.128 827.046 527.432 783.79C522.94 798.396 527.432 751.892 510.021 836.954C501.074 867.644 490.193 881.66 478.102 878.277C474.556 877.229 472.395 865.082 492.127 824.871C481.729 848.15 456.049 895.724 436.51 899.784C416.972 903.843 449.004 849.761 467.462 822.213C449.327 848.15 410.298 898.962 399.271 894.709C385.488 889.393 397.095 875.135 433.851 824.871C412.571 846.056 367.836 887.749 359.131 885.043C348.249 881.66 378.476 841.062 399.271 813.272C381.297 823.663 342.204 853.145 337.126 846.862C332.773 846.137 331.08 837.341 359.131 807.955C352.682 809.405 341.188 809.115 346.798 796.356C347.282 786.609 359.711 759.673 405.559 729.901C405.559 727.968 399.271 722.893 399.271 711.294C385.891 714.194 359.131 717.142 359.131 705.736L361.791 686.162C354.778 684.39 343.413 675.819 354.053 655.714C357.76 652.975 361.791 648.706 370.254 648.706C360.178 647.175 341.43 640.924 347.04 628.165C352.65 615.406 357.438 617.371 359.131 619.949C350.587 615.438 339.157 603.565 361.791 592.159L356.471 587.567C340.995 603.758 307.866 632.902 299.161 619.949C296.582 618.741 291.665 612.989 292.632 599.65C282.557 602.308 262.793 603.613 264.34 587.567V577.176C257.005 577.901 242.335 577.273 242.335 568.96H250.073C246.688 566.866 240.933 561.179 244.995 555.186C239.434 554.3 235.323 547.695 235.323 538.512C235.162 537.062 235.855 533.002 239.917 528.362C232.824 526.993 221.975 520.243 235.323 504.197L242.335 499.606C237.499 491.55 235.129 474.909 264.34 472.782C251.444 465.855 235.565 450.212 275.222 443.059C266.758 433.634 257.715 413.432 289.247 408.019C287.715 398.917 291.327 381.727 318.023 385.787C319.473 374.348 328.566 354.565 353.327 366.938C354.375 355.016 362.806 335.523 388.148 352.922C395.805 338.342 414.264 323.73 426.838 381.92L431.432 408.019C432.883 406.408 438.106 403.041 447.392 402.461C443.926 395.936 441.298 381.872 458.515 377.812C459.402 369.757 464.029 352.97 475.442 350.264C476.651 341.886 483.229 325.373 499.865 326.34C502.686 318.526 511.037 303.189 521.87 304.349C525.578 295.811 536.717 279.749 551.613 283.809C557.336 269.873 572.941 249.059 589.578 277.284L598.525 286.467C601.426 282.762 609.019 275.738 616.177 277.284C611.341 253.36 605.682 202.71 621.739 191.497C624.721 189.483 632.136 189.854 637.94 207.446C640.439 184.811 648.241 142.345 659.461 153.558C663.491 172.165 668.892 213.971 668.892 213.971C666.232 218.562 686.544 127.942 696.217 126.251C703.955 124.898 702.665 193.672 701.053 228.229C710.967 187.389 733.698 109.818 745.305 126.251L728.861 237.895C742.161 195.122 770.646 114.361 778.191 133.5C772.226 169.346 758.411 242.969 750.866 250.702C766.745 209.782 797.536 136.545 793.667 170.957C794.07 186.1 783.753 236.396 739.259 316.432C751.43 297.744 778.046 261.045 787.138 263.752C782.705 279.62 763.344 321.024 721.365 359.688C717.254 372.657 701.295 403.476 670.343 423.001C646.403 446.844 598.525 497.237 598.525 508.063C615.613 524.174 650.031 558.231 650.998 565.577C663.572 573.471 688.092 593.029 685.577 608.108Z" stroke="black" stroke-width="5"/>
</svg>
